<svg width="157" height="157" viewBox="0 0 157 157" fill="none" xmlns="http://www.w3.org/2000/svg">
<path d="M121.359 55.839C112.971 50.9957 106.005 44.0296 101.161 35.6407L81.6264 1.80505C80.2369 -0.60168 76.7631 -0.601683 75.3736 1.80504L55.8392 35.6397C50.9959 44.0285 44.0297 50.9947 35.6409 55.838L1.80504 75.3731C-0.601673 76.7626 -0.601684 80.2364 1.80503 81.6259L35.6405 101.161C44.0293 106.004 50.9954 112.97 55.8387 121.359L75.3736 155.195C76.7631 157.602 80.2369 157.602 81.6264 155.195L101.161 121.36C106.004 112.971 112.97 106.005 121.359 101.162L155.195 81.6269C157.602 80.2374 157.602 76.7636 155.195 75.3741L121.359 55.839Z" fill="#32bd6d"/>
</svg>
