
<svg width="383" height="336" viewBox="0 0 383 336" fill="none" xmlns="http://www.w3.org/2000/svg">
<path opacity="0.17" d="M296.664 6.84775L296.517 6.61816H280.087H62.3684L62.8842 7.23041H60.7475C47.1171 7.23041 36.0654 18.7101 36.0654 32.8683V291.697H15.4356L15.2883 291.927C5.12072 304.631 5.12072 322.998 15.2883 335.626L15.4356 335.855C15.4356 335.855 23.2455 335.855 36.0654 335.855H249.51H249.805C264.614 335.855 276.624 323.381 276.624 307.998V51.4654C276.624 51.4654 276.624 51.2358 276.624 50.8532H296.443L296.59 50.6236C306.758 37.9194 306.758 19.5519 296.664 6.84775Z" fill="black" fill-opacity="0.33"/>
<path d="M288.507 44.0011H55.9473C66.9 32.1325 67.0482 13.434 56.2581 1.31126L56.2552 1.30795L55.8336 0.842651H272.424H288.507L288.521 0.864917L288.538 0.885823C298.558 13.3298 298.559 31.437 288.537 43.9591L288.521 43.9795L288.507 44.0011Z" stroke="black"/>
<path d="M28.9028 329.003V26.5163C28.9028 12.6161 39.7484 1.37829 53.0849 1.37829H262.183H262.198L262.213 1.37739L262.183 0.878288C262.213 1.37739 262.213 1.3774 262.213 1.37739L262.216 1.37716L262.228 1.37647L262.274 1.37373L262.456 1.36316C262.614 1.35396 262.847 1.34065 263.144 1.32415C263.736 1.29116 264.583 1.24547 265.597 1.19471C267.626 1.09315 270.325 0.971351 273.01 0.890173C275.697 0.808919 278.36 0.768684 280.32 0.829177C280.52 0.835372 280.713 0.842603 280.896 0.850898C278.103 1.86324 275.967 4.41262 274.338 7.68431C272.234 11.9076 270.896 17.4781 270.042 22.9959C269.186 28.522 268.81 34.0336 268.647 38.1604C268.565 40.2247 268.537 41.9445 268.53 43.1488C268.526 43.751 268.527 44.2244 268.529 44.5477C268.531 44.7094 268.532 44.8335 268.533 44.9175L268.534 45.0129L268.535 45.0374V45.0437V45.0454C268.535 45.0458 268.535 45.0461 269.035 45.0368L268.535 45.0374V301.569C268.535 316.771 256.731 329.003 242.142 329.003H28.9028Z" fill="white"/>
<path d="M262.213 1.37739L262.198 1.37829H262.183H53.0849C39.7484 1.37829 28.9028 12.6161 28.9028 26.5163V329.003H242.142C256.731 329.003 268.535 316.771 268.535 301.569V45.0374M262.213 1.37739L262.183 0.878288C262.213 1.37739 262.213 1.3774 262.213 1.37739ZM262.213 1.37739L262.216 1.37716L262.228 1.37647L262.274 1.37373L262.456 1.36316C262.614 1.35396 262.847 1.34065 263.144 1.32415C263.736 1.29116 264.583 1.24547 265.597 1.19471C267.626 1.09315 270.325 0.971351 273.01 0.890173C275.697 0.808919 278.36 0.768684 280.32 0.829177C280.52 0.835372 280.713 0.842603 280.896 0.850898C278.103 1.86324 275.967 4.41262 274.338 7.68431C272.234 11.9076 270.896 17.4781 270.042 22.9959C269.186 28.522 268.81 34.0336 268.647 38.1604C268.565 40.2247 268.537 41.9445 268.53 43.1488C268.526 43.751 268.527 44.2244 268.529 44.5477C268.531 44.7094 268.532 44.8335 268.533 44.9175L268.534 45.0129L268.535 45.0374M268.535 45.0374V45.0437V45.0454C268.535 45.0458 268.535 45.0461 269.035 45.0368L268.535 45.0374Z" stroke="black"/>
<path d="M8.04623 285.845H240.72L240.298 286.31L240.295 286.313C234.801 292.487 231.587 300.811 231.502 308.873C231.423 316.482 234.134 323.886 240.379 329.003H240.34H240.206H240.067H239.923H239.776H239.623H239.466H239.305H239.139H238.968H238.793H238.614H238.431H238.243H238.05H237.854H237.653H237.447H237.238H237.024H236.806H236.584H236.357H236.126H235.892H235.653H235.41H235.163H234.911H234.656H234.397H234.133H233.866H233.595H233.319H233.04H232.757H232.47H232.179H231.884H231.586H231.283H230.977H230.667H230.353H230.036H229.714H229.39H229.061H228.729H228.393H228.053H227.71H227.363H227.013H226.659H226.301H225.941H225.576H225.208H224.837H224.462H224.084H223.702H223.318H222.929H222.538H222.143H221.745H221.343H220.938H220.53H220.119H219.705H219.287H218.867H218.443H218.016H217.586H217.153H216.717H216.277H215.835H215.39H214.942H214.491H214.037H213.58H213.12H212.657H212.191H211.723H211.251H210.777H210.301H209.821H209.339H208.853H208.366H207.875H207.382H206.886H206.388H205.887H205.383H204.877H204.368H203.857H203.343H202.827H202.308H201.787H201.264H200.738H200.209H199.679H199.146H198.61H198.073H197.533H196.99H196.446H195.899H195.35H194.799H194.246H193.69H193.133H192.573H192.011H191.447H190.881H190.313H189.743H189.171H188.597H188.021H187.444H186.864H186.282H185.699H185.113H184.526H183.937H183.346H182.754H182.159H181.563H180.965H180.366H179.765H179.162H178.557H177.951H177.343H176.734H176.123H175.511H174.897H174.281H173.665H173.046H172.426H171.805H171.182H170.558H169.933H169.306H168.678H168.049H167.418H166.786H166.153H165.519H164.883H164.246H163.608H162.969H162.329H161.687H161.045H160.401H159.757H159.111H158.465H157.817H157.168H156.519H155.868H155.217H154.565H153.912H153.258H152.603H151.947H151.291H150.633H149.976H149.317H148.657H147.997H147.336H146.675H146.013H145.35H144.687H144.023H143.358H142.693H142.028H141.362H140.695H140.028H139.361H138.693H138.025H137.356H136.687H136.018H135.348H134.679H134.008H133.338H132.667H131.996H131.325H130.654H129.982H129.31H128.639H127.967H127.295H126.623H125.951H125.278H124.606H123.934H123.262H122.59H121.918H121.246H120.574H119.903H119.231H118.56H117.889H117.218H116.547H115.877H115.206H114.536H113.867H113.198H112.529H111.86H111.192H110.524H109.857H109.19H108.523H107.857H107.192H106.527H105.862H105.199H104.535H103.873H103.21H102.549H101.888H101.228H100.569H99.9102H99.2523H98.5951H97.9387H97.2831H96.6283H95.9744H95.3213H94.6691H94.0178H93.3673H92.7179H92.0694H91.4218H90.7753H90.1297H89.4852H88.8418H88.1994H87.5581H86.9179H86.2789H85.641H85.0043H84.3687H83.7344H83.1013H82.4694H81.8389H81.2096H80.5816H79.9549H79.3296H78.7057H78.0831H77.462H76.8422H76.2239H75.6071H74.9918H74.378H73.7657H73.1549H72.5457H71.9381H71.3321H70.7277H70.1249H69.5238H68.9244H68.3267H67.7307H67.1365H66.544H65.9533H65.3644H64.7773H64.1921H63.6087H63.0271H62.4475H61.8698H61.2941H60.7202H60.1484H59.5786H59.0108H58.445H57.8812H57.3196H56.76H56.2026H55.6472H55.0941H54.5431H53.9943H53.4477H52.9033H52.3612H51.8214H51.2838H50.7486H50.2157H49.6851H49.1569H48.6311H48.1077H47.5868H47.0683H46.5522H46.0387H45.5276H45.0191H44.5131H44.0097H43.5088H43.0106H42.515H42.022H41.5317H41.0441H40.5592H40.077H39.5976H39.1209H38.647H38.1759H37.7076H37.2422H36.7796H36.3199H35.8631H35.4092H34.9583H34.5103H34.0653H33.6233H33.1843H32.7483H32.3154H31.8856H31.4589H31.0353H30.6148H30.1975H29.7833H29.3724H28.9646H28.5601H28.1589H27.7609H27.3662H26.9749H26.5868H26.2021H25.8208H25.4429H25.0684H24.6973H24.3297H23.9655H23.6048H23.2477H22.894H22.5439H22.1974H21.8545H21.5151H21.1794H20.8474H20.519H20.1943H19.8733H19.556H19.2425H18.9327H18.6268H18.3246H18.0262H17.7317H17.4411H17.1543H16.8714H16.5925H16.3175H16.0464H15.7794H15.5163H15.2573H15.0023H14.7513H14.5045H14.2617H14.0231H13.7886H13.5582H13.332H13.1101H12.8923H12.6788H12.4695H12.2645H12.0638H11.8674H11.6754H11.4877H11.3043H11.1254H10.9509H10.7808H10.6152H10.454H10.2974H10.1452H9.99756H9.85449H9.71598H9.58206H9.45275H9.32807H9.20804H9.09268H8.98201H8.87604H8.7748H8.67831H8.58658H8.49964H8.41751H8.3402H8.26773H8.20014H8.13742H8.07961H8.04623L8.03235 328.982L8.01603 328.961C-2.00579 316.439 -2.00459 298.332 8.01511 285.888L8.03195 285.867L8.04623 285.845Z" stroke="black"/>
<path d="M80.9194 62.1389V50.4348H225.36V62.1389H80.9194Z" stroke="black"/>
<path d="M181.563 269.539V266.406H245.621V269.539H181.563Z" fill="#F99B82" stroke="black"/>
<path d="M60.7317 91.1443V87.0167H245.621V91.1443H60.7317Z" stroke="black"/>
<path d="M60.7317 116.476V112.349H245.621V116.476H60.7317Z" stroke="black"/>
<path d="M60.7317 141.808V137.68H245.621V141.808H60.7317Z" stroke="black"/>
<path d="M60.7317 167.216V163.089H245.621V167.216H60.7317Z" stroke="black"/>
<path d="M60.7317 192.548V188.42H245.621V192.548H60.7317Z" stroke="black"/>
<path d="M60.7317 243.212V239.084H245.621V243.212H60.7317Z" stroke="black"/>
<path d="M60.7317 217.88V213.752H245.621V217.88H60.7317Z" stroke="black"/>
<g opacity="0.28">
<path d="M380.311 68.1094L380.312 68.1103L382.391 69.4507C382.434 69.5049 382.469 69.5706 382.487 69.6343C382.505 69.6986 382.501 69.7379 382.494 69.7587L361.586 105.166L361.575 105.184L361.566 105.203C361.561 105.212 361.558 105.215 361.557 105.216C361.555 105.217 361.55 105.22 361.541 105.223C361.522 105.228 361.489 105.228 361.452 105.213L359.27 103.778L359.249 103.763L359.226 103.752V103.751C359.223 103.75 359.213 103.745 359.205 103.715C359.197 103.682 359.199 103.633 359.219 103.585L378.14 71.6182L378.151 71.5997L378.16 71.5804C378.387 71.1091 378.322 70.4018 377.733 70.0855L377.228 69.7856L376.798 69.5302L376.543 69.9606L347.735 118.558L347.724 118.576L347.714 118.596C347.711 118.603 347.69 118.632 347.637 118.646C347.59 118.659 347.532 118.656 347.471 118.618L347.468 118.616L346.215 117.85L345.781 117.585L345.523 118.024L342.651 122.92L342.65 122.922L282.751 224.095L282.504 224.51L282.912 224.771L283.86 225.377C283.957 225.447 284.04 225.573 284.073 225.732C284.106 225.894 284.078 226.044 284.013 226.146C283.859 226.384 283.511 226.444 283.318 226.311L283.312 226.306L283.306 226.302L282.127 225.537L281.757 225.297L281.472 225.634L280.957 226.247L280.598 226.673L281.06 226.984L282.307 227.822C282.308 227.822 282.308 227.823 282.309 227.823C282.408 227.893 282.492 228.02 282.525 228.181C282.559 228.343 282.531 228.493 282.465 228.595C282.312 228.833 281.963 228.893 281.771 228.76L281.764 228.755L281.757 228.75L280.209 227.755L279.842 227.519L279.558 227.852L270.054 239.025L270.053 239.026L259.591 251.347L259.499 251.456L259.478 251.598L258.916 255.392L248.291 264.442L247.128 263.687L250.247 249.99L253.614 247.805L253.741 247.722L253.801 247.583L260.211 232.659L266.031 219.113L266.198 218.726L265.844 218.496L264.088 217.357C264.087 217.355 264.085 217.354 264.083 217.353C263.986 217.283 263.903 217.157 263.87 216.997C263.836 216.835 263.864 216.686 263.93 216.584C264.083 216.345 264.432 216.285 264.624 216.418L264.631 216.423L264.638 216.428L266.186 217.423L266.661 217.729L266.907 217.219L267.275 216.454L267.469 216.05L267.089 215.813L265.628 214.902C265.532 214.832 265.449 214.706 265.417 214.548C265.383 214.386 265.411 214.237 265.477 214.135C265.63 213.896 265.979 213.836 266.171 213.969L266.18 213.975L266.188 213.981L267.514 214.822L267.95 215.099L268.213 214.655L330.986 108.583L331.233 108.165L330.823 107.905L329.128 106.834L329.11 106.823L329.092 106.813C329.094 106.814 329.06 106.793 329.042 106.722C329.026 106.66 329.032 106.585 329.072 106.513L329.073 106.512L357.878 57.9194L358.13 57.495L357.709 57.2378L356.456 56.4725L356.442 56.4634L356.426 56.4554C356.423 56.4541 356.413 56.4489 356.405 56.4186C356.397 56.3848 356.399 56.3355 356.42 56.2859L357.809 53.8564L357.817 53.8411L357.825 53.8251C357.829 53.816 357.833 53.8133 357.834 53.8124C357.835 53.8118 357.836 53.8111 357.837 53.8102C357.84 53.8087 357.844 53.8068 357.85 53.8052C357.87 53.8001 357.904 53.7998 357.944 53.8172L359.177 54.5707L359.612 54.8363L359.869 54.3966L363.185 48.7333L363.195 48.7158L363.204 48.6975C363.207 48.6907 363.228 48.6618 363.281 48.6473C363.327 48.6347 363.384 48.6375 363.445 48.6744C363.445 48.6747 363.446 48.6751 363.446 48.6754L381.788 60.3818L381.806 60.3938L381.826 60.4041C381.826 60.4038 381.826 60.404 381.826 60.4041C381.83 60.4069 381.86 60.4304 381.876 60.4945C381.892 60.5575 381.886 60.6328 381.845 60.7044C381.845 60.7041 381.845 60.7046 381.845 60.7044L378.531 66.366L378.293 66.7727L378.684 67.0344L379.716 67.7232L379.721 67.7268L380.311 68.1094Z" fill="black"/>
<path d="M381.826 60.4041L381.806 60.3938L381.788 60.3818L363.446 48.6754C363.446 48.6751 363.445 48.6747 363.445 48.6744C363.384 48.6375 363.327 48.6347 363.281 48.6473C363.228 48.6618 363.207 48.6907 363.204 48.6975L363.195 48.7158L363.185 48.7333L359.869 54.3966L359.612 54.8363L359.177 54.5707L357.944 53.8172C357.904 53.7998 357.87 53.8001 357.85 53.8052C357.844 53.8068 357.84 53.8087 357.837 53.8102C357.836 53.8111 357.835 53.8118 357.834 53.8124C357.833 53.8133 357.829 53.816 357.825 53.8251L357.817 53.8411L357.809 53.8564L356.42 56.2859C356.399 56.3355 356.397 56.3848 356.405 56.4186C356.413 56.4489 356.423 56.4541 356.426 56.4554L356.442 56.4634L356.456 56.4725L357.709 57.2378L358.13 57.495L357.878 57.9194L329.073 106.512L329.072 106.513C329.032 106.585 329.026 106.66 329.042 106.722C329.06 106.793 329.094 106.814 329.092 106.813L329.11 106.823L329.128 106.834L330.823 107.905L331.233 108.165L330.986 108.583L268.213 214.655L267.95 215.099L267.514 214.822L266.188 213.981L266.18 213.975L266.171 213.969C265.979 213.836 265.63 213.896 265.477 214.135C265.411 214.237 265.383 214.386 265.417 214.548C265.449 214.706 265.532 214.832 265.628 214.902L267.089 215.813L267.469 216.05L267.275 216.454L266.907 217.219L266.661 217.729L266.186 217.423L264.638 216.428L264.631 216.423L264.624 216.418C264.432 216.285 264.083 216.345 263.93 216.584C263.864 216.686 263.836 216.835 263.87 216.997C263.903 217.157 263.986 217.283 264.083 217.353C264.085 217.354 264.087 217.355 264.088 217.357L265.844 218.496L266.198 218.726L266.031 219.113L260.211 232.659L253.801 247.583L253.741 247.722L253.614 247.805L250.247 249.99L247.128 263.687L248.291 264.442L258.916 255.392L259.478 251.598L259.499 251.456L259.591 251.347L270.053 239.026L270.054 239.025L279.558 227.852L279.842 227.519L280.209 227.755L281.757 228.75L281.764 228.755L281.771 228.76C281.963 228.893 282.312 228.833 282.465 228.595C282.531 228.493 282.559 228.343 282.525 228.181C282.492 228.02 282.408 227.893 282.309 227.823C282.308 227.823 282.308 227.822 282.307 227.822L281.06 226.984L280.598 226.673L280.957 226.247L281.472 225.634L281.757 225.297L282.127 225.537L283.306 226.302L283.312 226.306L283.318 226.311C283.511 226.444 283.859 226.384 284.013 226.146C284.078 226.044 284.106 225.894 284.073 225.732C284.04 225.573 283.957 225.447 283.86 225.377L282.912 224.771L282.504 224.51L282.751 224.095L342.65 122.922L342.651 122.92L345.523 118.024L345.781 117.585L346.215 117.85L347.468 118.616L347.471 118.618C347.532 118.656 347.59 118.659 347.637 118.646C347.69 118.632 347.711 118.603 347.714 118.596L347.724 118.576L347.735 118.558L376.543 69.9606L376.798 69.5302L377.228 69.7856L377.733 70.0855C378.322 70.4018 378.387 71.1091 378.16 71.5804L378.151 71.5997L378.14 71.6182L359.219 103.585C359.199 103.633 359.197 103.682 359.205 103.715C359.213 103.745 359.223 103.75 359.226 103.751V103.752L359.249 103.763L359.27 103.778L361.452 105.213C361.489 105.228 361.522 105.228 361.541 105.223C361.55 105.22 361.555 105.217 361.557 105.216C361.558 105.215 361.561 105.212 361.566 105.203L361.575 105.184L361.586 105.166L382.494 69.7587C382.501 69.7379 382.505 69.6986 382.487 69.6343C382.469 69.5706 382.434 69.5049 382.391 69.4507L380.312 68.1103L380.311 68.1094L379.721 67.7268L379.716 67.7232L378.684 67.0344L378.293 66.7727L378.531 66.366L381.845 60.7044M381.826 60.4041C381.826 60.404 381.826 60.4038 381.826 60.4041ZM381.826 60.4041C381.83 60.4069 381.86 60.4304 381.876 60.4945C381.892 60.5575 381.886 60.6328 381.845 60.7044M381.845 60.7044C381.845 60.7046 381.845 60.7041 381.845 60.7044Z" stroke="black"/>
</g>
<path d="M277.169 221.614L265.318 235.939L255.219 229.66L262.41 212.48L332.131 91.728L346.899 100.845L277.169 221.614Z" stroke="black"/>
<path d="M341.083 114.882L341.104 114.898C341.131 114.919 341.163 114.926 341.197 114.919C341.228 114.912 341.278 114.888 341.322 114.813M341.083 114.882L341.322 114.813M341.083 114.882L341.061 114.868L322.568 103.388C322.441 103.309 322.44 103.177 322.488 103.111L322.503 103.09L322.516 103.068L356.039 44.9808M341.083 114.882L356.039 44.9808M341.322 114.813L374.845 56.7258L374.858 56.7037L374.873 56.683C374.921 56.6164 374.92 56.4847 374.793 56.4052M341.322 114.813L356.039 44.9808M356.039 44.9808C356.083 44.9059 356.133 44.8817 356.164 44.8748C356.198 44.8675 356.23 44.8744 356.257 44.8956L356.278 44.9119L356.3 44.926L374.793 56.4052M374.793 56.4052C374.793 56.4053 374.793 56.4051 374.793 56.4052Z" stroke="black"/>
<path d="M373.385 64.0532L373.391 64.0571L373.397 64.0609L375.534 65.3619L375.548 65.3707L375.564 65.3786C375.566 65.3796 375.576 65.3836 375.584 65.4154C375.592 65.4491 375.591 65.4981 375.57 65.5474L355.026 101.191L355.016 101.207L355.008 101.223C355.004 101.233 355 101.235 354.999 101.236C354.998 101.238 354.993 101.241 354.983 101.243C354.964 101.248 354.93 101.249 354.891 101.232L352.703 99.8679L352.686 99.8576L352.669 99.8485L352.668 99.8484C352.665 99.847 352.655 99.842 352.648 99.8118C352.64 99.7781 352.641 99.7291 352.662 99.6798L371.217 67.5574L371.226 67.5411L371.234 67.5242C371.461 67.0543 371.396 66.3499 370.813 66.0322L349.313 52.648L349.297 52.6377L349.279 52.6288C349.279 52.6287 349.279 52.6289 349.279 52.6288C349.276 52.6275 349.266 52.6223 349.259 52.592C349.251 52.5581 349.252 52.5089 349.273 52.4593L350.662 50.0298L350.671 50.0145L350.678 49.9985C350.683 49.9894 350.686 49.9866 350.687 49.9857C350.689 49.9843 350.694 49.9811 350.703 49.9786C350.723 49.9736 350.757 49.9732 350.796 49.99L372.8 63.6732L373.385 64.0532Z" fill="#1A1A1A"/>
<path d="M349.279 52.6288L349.297 52.6377L349.313 52.648L370.813 66.0322C371.396 66.3499 371.461 67.0543 371.234 67.5242L371.226 67.5411L371.217 67.5574L352.662 99.6798C352.641 99.7291 352.64 99.7781 352.648 99.8118C352.655 99.842 352.665 99.847 352.668 99.8484L352.669 99.8485L352.686 99.8576L352.703 99.8679L354.891 101.232C354.93 101.249 354.964 101.248 354.983 101.243C354.993 101.241 354.998 101.238 354.999 101.236C355 101.235 355.004 101.233 355.008 101.223L355.016 101.207L355.026 101.191L375.57 65.5474C375.591 65.4981 375.592 65.4491 375.584 65.4154C375.576 65.3836 375.566 65.3796 375.564 65.3786L375.548 65.3707L375.534 65.3619L373.397 64.0609L373.391 64.0571L373.385 64.0532L372.8 63.6732L350.796 49.99C350.757 49.9732 350.723 49.9736 350.703 49.9786C350.694 49.9811 350.689 49.9843 350.687 49.9857C350.686 49.9866 350.683 49.9894 350.678 49.9985L350.671 50.0145L350.662 50.0298L349.273 52.4593C349.252 52.5089 349.251 52.5581 349.259 52.592C349.266 52.6223 349.276 52.6275 349.279 52.6288ZM349.279 52.6288C349.279 52.6287 349.279 52.6289 349.279 52.6288Z" stroke="black"/>
<path d="M276.757 222.097L254.929 248.339L248.957 244.658L262.196 212.994L276.757 222.097Z" stroke="black"/>
<path d="M248.343 245.454L254.499 249.249L254.048 252.796L243.49 261.922L242.337 261.223L245.242 247.534L248.343 245.454Z" fill="#DAE7E8" stroke="black"/>
<path d="M278.455 223.379C278.349 223.407 278.212 223.398 278.062 223.31L260.248 212.223C259.993 212.04 259.896 211.711 260.034 211.442C260.218 211.169 260.516 211.098 260.745 211.231L278.558 222.318C278.818 222.504 278.914 222.841 278.764 223.114C278.677 223.272 278.562 223.35 278.455 223.379Z" fill="#688689" stroke="black"/>
<path d="M276.687 225.852L276.677 225.845L276.667 225.838L258.849 214.749C258.593 214.566 258.496 214.237 258.635 213.967C258.818 213.695 259.117 213.624 259.345 213.757L277.158 224.843C277.412 225.025 277.509 225.35 277.375 225.619C277.122 225.97 276.838 225.956 276.687 225.852Z" fill="#688689" stroke="black"/>
<path d="M248.285 252.477C248.724 252.794 248.867 253.413 248.636 253.867C248.329 254.327 247.755 254.455 247.346 254.232C246.907 253.915 246.764 253.296 246.995 252.842C247.302 252.382 247.876 252.254 248.285 252.477Z" stroke="black"/>
<mask id="mask0_161_23" style="mask-type:luminance" maskUnits="userSpaceOnUse" x="242" y="253" width="6" height="10">
<path d="M247.102 253.832L242.442 261.906L243.074 262.299L247.733 254.226L247.102 253.832Z" fill="white"/>
</mask>
<g mask="url(#mask0_161_23)">
<path d="M242.442 261.906L241.593 261.377L241.093 262.243L241.942 262.772L242.442 261.906ZM247.102 253.832L247.601 252.966L246.753 252.437L246.253 253.303L247.102 253.832ZM247.733 254.226L248.582 254.754L249.082 253.888L248.233 253.359L247.733 254.226ZM243.074 262.299L242.574 263.165L243.423 263.694L243.922 262.828L243.074 262.299ZM243.291 262.434L247.95 254.361L246.253 253.303L241.593 261.377L243.291 262.434ZM246.602 254.698L247.234 255.092L248.233 253.359L247.601 252.966L246.602 254.698ZM246.885 253.697L242.225 261.771L243.922 262.828L248.582 254.754L246.885 253.697ZM243.573 261.433L242.942 261.04L241.942 262.772L242.574 263.165L243.573 261.433Z" fill="black"/>
</g>
<path opacity="0.28" d="M338.869 114.697L331.084 128.174L324.829 105.988L338.869 114.697Z" fill="black" stroke="black"/>
<path d="M80.9194 62.1389V50.4348H100.476V62.1389H80.9194Z" fill="#82D798" stroke="black"/>
</svg>
